REM COMMENT "Generated by IcecastMetadataRecorder https://github.com/eshaz/icecast-metadata-js"
REM BR "16"
REM METAINT "64"
REM DATE "2020-07-29T21:16:11.222Z"
TITLE "isics-all"
FILE "isics-all.mp3" WAVE
  TRACK 1 AUDIO
    TITLE "2020-07-29T21:24:53.942Z TO:P:24605 [14002] Dallas County Law 1, Region 4 Interoperability Tac 42 FROM:10987"
    INDEX 01 08:42:54
  TRACK 2 AUDIO
    TITLE "2020-07-29T21:24:59.558Z TO:177 Polk County - Westcom Fire 2 FROM:1932"
    INDEX 01 08:48:25
  TRACK 3 AUDIO
    TITLE "2020-07-29T21:25:03.014Z TO:1101 Polk County - Westcom Law Enforcement 1 FROM:1004"
    INDEX 01 08:51:59
  TRACK 4 AUDIO
    TITLE "2020-07-29T21:25:09.350Z TO:1102 Polk County - Westcom Law Enforcement 2 FROM:1377"
    INDEX 01 08:58:10
  TRACK 5 AUDIO
    TITLE "2020-07-29T21:25:12.878Z TO:177 Polk County - Westcom Fire 2 FROM:1007"
    INDEX 01 09:01:49
  TRACK 6 AUDIO
    TITLE "2020-07-29T21:25:14.966Z TO:1101 Polk County - Westcom Law Enforcement 1 FROM:UNKNOWN"
    INDEX 01 09:03:56
  TRACK 7 AUDIO
    TITLE "2020-07-29T21:25:15.686Z TO:1102 Polk County - Westcom Law Enforcement 2 FROM:1006"
    INDEX 01 09:04:35
  TRACK 8 AUDIO
    TITLE "2020-07-29T21:25:18.494Z TO:P:24605 [14002] Dallas County Law 1, Region 4 Interoperability Tac 42 FROM:11360"
    INDEX 01 09:07:20
  TRACK 9 AUDIO
    TITLE "2020-07-29T21:25:20.582Z TO:177 Polk County - Westcom Fire 2 FROM:1007"
    INDEX 01 09:09:27
  TRACK 10 AUDIO
    TITLE "END"
    INDEX 01 09:12:13